HIERARCHY
ROOT Hips
{
	OFFSET 0.053599 88.859886 3.107447
	CHANNELS 6 Xposition Yposition Zposition Zrotation Yrotation Xrotation 
	JOINT Spine
	{
		OFFSET -0.000000 8.814246 -2.080107
		CHANNELS 3 Zrotation Yrotation Xrotation
		JOINT Spine1
		{
			OFFSET 0.000000 8.844141 0.000000
			CHANNELS 3 Zrotation Yrotation Xrotation
			JOINT Spine2
			{
				OFFSET -0.000000 11.682268 0.000000
				CHANNELS 3 Zrotation Yrotation Xrotation
				JOINT Spine3
				{
					OFFSET 0.000000 11.746700 0.000000
					CHANNELS 3 Zrotation Yrotation Xrotation
					JOINT Neck
					{
						OFFSET -0.000000 17.658264 -0.000000
						CHANNELS 3 Zrotation Yrotation Xrotation
						JOINT Neck1
						{
							OFFSET -0.000000 5.101515 -0.000000
							CHANNELS 3 Zrotation Yrotation Xrotation
							JOINT Head
							{
								OFFSET 0.000000 5.101515 0.000000
								CHANNELS 3 Zrotation Yrotation Xrotation
								JOINT HeadEnd
								{
									OFFSET 0.000000 11.655085 0.000000
									CHANNELS 3 Zrotation Yrotation Xrotation
									End Site
									{
										OFFSET 0.000000 0.000000 0.000000
									}
								}
							}
						}
					}
					JOINT RightShoulder
					{
						OFFSET -2.625389 11.175210 0.000000
						CHANNELS 3 Zrotation Yrotation Xrotation
						JOINT RightArm
						{
							OFFSET -0.000000 10.434715 -0.000000
							CHANNELS 3 Zrotation Yrotation Xrotation
							JOINT RightForeArm
							{
								OFFSET -0.000000 29.628420 0.000000
								CHANNELS 3 Zrotation Yrotation Xrotation
								JOINT RightHand
								{
									OFFSET -0.000000 22.857611 0.000000
									CHANNELS 3 Zrotation Yrotation Xrotation
									JOINT RightHandThumb1
									{
										OFFSET -2.867323 3.959563 2.944291
										CHANNELS 3 Zrotation Yrotation Xrotation
										JOINT RightHandThumb2
										{
											OFFSET 0.000000 3.350399 0.000000
											CHANNELS 3 Zrotation Yrotation Xrotation
											JOINT RightHandThumb3
											{
												OFFSET 0.000000 3.756509 -0.000000
												CHANNELS 3 Zrotation Yrotation Xrotation
												JOINT RightHandThumb4
												{
													OFFSET 0.000000 3.147345 0.000000
													CHANNELS 3 Zrotation Yrotation Xrotation
													End Site
													{
														OFFSET 0.000000 0.000000 0.000000
													}
												}
											}
										}
									}
									JOINT RightHandIndex1
									{
										OFFSET -0.086752 10.030893 2.345280
										CHANNELS 3 Zrotation Yrotation Xrotation
										JOINT RightHandIndex2
										{
											OFFSET -0.000000 4.061090 0.000000
											CHANNELS 3 Zrotation Yrotation Xrotation
											JOINT RightHandIndex3
											{
												OFFSET -0.000000 3.248873 0.000000
												CHANNELS 3 Zrotation Yrotation Xrotation
												JOINT RightHandIndex4
												{
													OFFSET 0.000000 2.639709 -0.000000
													CHANNELS 3 Zrotation Yrotation Xrotation
													End Site
													{
														OFFSET 0.000000 0.000000 0.000000
													}
												}
											}
										}
									}
									JOINT RightHandMiddle1
									{
										OFFSET 0.104102 9.502952 0.006768
										CHANNELS 3 Zrotation Yrotation Xrotation
										JOINT RightHandMiddle2
										{
											OFFSET 0.000000 4.568727 0.000000
											CHANNELS 3 Zrotation Yrotation Xrotation
											JOINT RightHandMiddle3
											{
												OFFSET 0.000000 3.654981 -0.000000
												CHANNELS 3 Zrotation Yrotation Xrotation
												JOINT RightHandMiddle4
												{
													OFFSET -0.000000 2.741236 -0.000000
													CHANNELS 3 Zrotation Yrotation Xrotation
													End Site
													{
														OFFSET 0.000000 0.000000 0.000000
													}
												}
											}
										}
									}
									JOINT RightHandRing1
									{
										OFFSET 0.086752 8.921708 -2.267442
										CHANNELS 3 Zrotation Yrotation Xrotation
										JOINT RightHandRing2
										{
											OFFSET -0.000000 4.061090 0.000000
											CHANNELS 3 Zrotation Yrotation Xrotation
											JOINT RightHandRing3
											{
												OFFSET 0.000000 3.654981 -0.000000
												CHANNELS 3 Zrotation Yrotation Xrotation
												JOINT RightHandRing4
												{
													OFFSET 0.000000 2.741236 -0.000000
													CHANNELS 3 Zrotation Yrotation Xrotation
													End Site
													{
														OFFSET 0.000000 0.000000 0.000000
													}
												}
											}
										}
									}
									JOINT RightHandPinky1
									{
										OFFSET -0.173504 7.976997 -4.467199
										CHANNELS 3 Zrotation Yrotation Xrotation
										JOINT RightHandPinky2
										{
											OFFSET 0.000000 3.350399 -0.000000
											CHANNELS 3 Zrotation Yrotation Xrotation
											JOINT RightHandPinky3
											{
												OFFSET -0.000000 2.842763 0.000000
												CHANNELS 3 Zrotation Yrotation Xrotation
												JOINT RightHandPinky4
												{
													OFFSET -0.000000 2.639709 0.000000
													CHANNELS 3 Zrotation Yrotation Xrotation
													End Site
													{
														OFFSET 0.000000 0.000000 0.000000
													}
												}
											}
										}
									}
									JOINT RightForeArmEnd
									{
										OFFSET 0.000000 0.000000 0.000000
										CHANNELS 3 Zrotation Yrotation Xrotation
										End Site
										{
											OFFSET 0.000000 0.000000 0.000000
										}
									}
								}
								JOINT RightArmEnd
								{
									OFFSET 0.000000 0.000000 0.000000
									CHANNELS 3 Zrotation Yrotation Xrotation
									End Site
									{
										OFFSET 0.000000 0.000000 0.000000
									}
								}
							}
						}
					}
					JOINT LeftShoulder
					{
						OFFSET 2.625389 11.175210 0.000000
						CHANNELS 3 Zrotation Yrotation Xrotation
						JOINT LeftArm
						{
							OFFSET 0.000000 10.813635 -0.000000
							CHANNELS 3 Zrotation Yrotation Xrotation
							JOINT LeftForeArm
							{
								OFFSET 0.000000 28.724781 0.000000
								CHANNELS 3 Zrotation Yrotation Xrotation
								JOINT LeftHand
								{
									OFFSET 0.644384 25.716167 -0.328871
									CHANNELS 3 Zrotation Yrotation Xrotation
									JOINT LeftHandThumb1
									{
										OFFSET 2.867323 3.959563 2.944291
										CHANNELS 3 Zrotation Yrotation Xrotation
										JOINT LeftHandThumb2
										{
											OFFSET 0.000000 3.350399 0.000000
											CHANNELS 3 Zrotation Yrotation Xrotation
											JOINT LeftHandThumb3
											{
												OFFSET -0.000000 3.756509 0.000000
												CHANNELS 3 Zrotation Yrotation Xrotation
												JOINT LeftHandThumb4
												{
													OFFSET -0.000000 3.100000 0.000000
													CHANNELS 3 Zrotation Yrotation Xrotation
													End Site
													{
														OFFSET 0.000000 0.000000 0.000000
													}
												}
											}
										}
									}
									JOINT LeftHandIndex1
									{
										OFFSET 0.086752 10.030893 2.345280
										CHANNELS 3 Zrotation Yrotation Xrotation
										JOINT LeftHandIndex2
										{
											OFFSET -0.000000 4.061090 -0.000000
											CHANNELS 3 Zrotation Yrotation Xrotation
											JOINT LeftHandIndex3
											{
												OFFSET 0.000000 3.248873 -0.000000
												CHANNELS 3 Zrotation Yrotation Xrotation
												JOINT LeftHandIndex4
												{
													OFFSET 0.000000 2.639709 -0.000000
													CHANNELS 3 Zrotation Yrotation Xrotation
													End Site
													{
														OFFSET 0.000000 0.000000 0.000000
													}
												}
											}
										}
									}
									JOINT LeftHandMiddle1
									{
										OFFSET -0.104102 9.502952 0.006768
										CHANNELS 3 Zrotation Yrotation Xrotation
										JOINT LeftHandMiddle2
										{
											OFFSET -0.000000 4.568727 -0.000000
											CHANNELS 3 Zrotation Yrotation Xrotation
											JOINT LeftHandMiddle3
											{
												OFFSET 0.000000 3.654981 0.000000
												CHANNELS 3 Zrotation Yrotation Xrotation
												JOINT LeftHandMiddle4
												{
													OFFSET 0.000000 2.741236 -0.000000
													CHANNELS 3 Zrotation Yrotation Xrotation
													End Site
													{
														OFFSET 0.000000 0.000000 0.000000
													}
												}
											}
										}
									}
									JOINT LeftHandRing1
									{
										OFFSET -0.086752 8.921708 -2.267442
										CHANNELS 3 Zrotation Yrotation Xrotation
										JOINT LeftHandRing2
										{
											OFFSET 0.000000 4.061090 0.000000
											CHANNELS 3 Zrotation Yrotation Xrotation
											JOINT LeftHandRing3
											{
												OFFSET 0.000000 3.654981 0.000000
												CHANNELS 3 Zrotation Yrotation Xrotation
												JOINT LeftHandRing4
												{
													OFFSET 0.000000 2.741236 0.000000
													CHANNELS 3 Zrotation Yrotation Xrotation
													End Site
													{
														OFFSET 0.000000 0.000000 0.000000
													}
												}
											}
										}
									}
									JOINT LeftHandPinky1
									{
										OFFSET 0.173504 7.976997 -4.467199
										CHANNELS 3 Zrotation Yrotation Xrotation
										JOINT LeftHandPinky2
										{
											OFFSET -0.000000 3.350399 -0.000000
											CHANNELS 3 Zrotation Yrotation Xrotation
											JOINT LeftHandPinky3
											{
												OFFSET 0.000000 2.842763 0.000000
												CHANNELS 3 Zrotation Yrotation Xrotation
												JOINT LeftHandPinky4
												{
													OFFSET -0.000000 2.639709 -0.000000
													CHANNELS 3 Zrotation Yrotation Xrotation
													End Site
													{
														OFFSET 0.000000 0.000000 0.000000
													}
												}
											}
										}
									}
									JOINT LeftForeArmEnd
									{
										OFFSET 0.000000 0.000000 0.000000
										CHANNELS 3 Zrotation Yrotation Xrotation
										End Site
										{
											OFFSET 0.000000 0.000000 0.000000
										}
									}
								}
								JOINT LeftArmEnd
								{
									OFFSET 0.000000 0.000000 0.000000
									CHANNELS 3 Zrotation Yrotation Xrotation
									End Site
									{
										OFFSET 0.000000 0.000000 0.000000
									}
								}
							}
						}
					}
				}
			}
		}
	}
	JOINT RightUpLeg
	{
		OFFSET -11.289943 0.000000 0.000000
		CHANNELS 3 Zrotation Yrotation Xrotation
		JOINT RightLeg
		{
			OFFSET 0.000000 -38.200325 0.000000
			CHANNELS 3 Zrotation Yrotation Xrotation
			JOINT RightFoot
			{
				OFFSET -0.000000 -39.900856 -0.000000
				CHANNELS 3 Zrotation Yrotation Xrotation
				JOINT RightToeBase
				{
					OFFSET 0.000000 0.000000 15.261641
					CHANNELS 3 Zrotation Yrotation Xrotation
					JOINT RightToeBaseEnd
					{
						OFFSET 0.000000 0.000000 7.370709
						CHANNELS 3 Zrotation Yrotation Xrotation
						End Site
						{
							OFFSET 0.000000 0.000000 0.000000
						}
					}
				}
				JOINT RightLegEnd
				{
					OFFSET 0.000000 0.000000 0.000000
					CHANNELS 3 Zrotation Yrotation Xrotation
					End Site
					{
						OFFSET 0.000000 0.000000 0.000000
					}
				}
			}
			JOINT RightUpLegEnd
			{
				OFFSET 0.000000 0.000000 0.000000
				CHANNELS 3 Zrotation Yrotation Xrotation
				End Site
				{
					OFFSET 0.000000 0.000000 0.000000
				}
			}
		}
	}
	JOINT LeftUpLeg
	{
		OFFSET 11.315661 -0.000000 0.000000
		CHANNELS 3 Zrotation Yrotation Xrotation
		JOINT LeftLeg
		{
			OFFSET -0.000000 -38.200325 -0.000000
			CHANNELS 3 Zrotation Yrotation Xrotation
			JOINT LeftFoot
			{
				OFFSET 0.000000 -39.900856 -0.000000
				CHANNELS 3 Zrotation Yrotation Xrotation
				JOINT LeftToeBase
				{
					OFFSET -0.000000 -0.000000 15.261641
					CHANNELS 3 Zrotation Yrotation Xrotation
					JOINT LeftToeBaseEnd
					{
						OFFSET 0.000000 -0.000000 7.539996
						CHANNELS 3 Zrotation Yrotation Xrotation
						End Site
						{
							OFFSET 0.000000 0.000000 0.000000
						}
					}
				}
				JOINT LeftLegEnd
				{
					OFFSET 0.000000 0.000000 0.000000
					CHANNELS 3 Zrotation Yrotation Xrotation
					End Site
					{
						OFFSET 0.000000 0.000000 0.000000
					}
				}
			}
			JOINT LeftUpLegEnd
			{
				OFFSET 0.000000 0.000000 0.000000
				CHANNELS 3 Zrotation Yrotation Xrotation
				End Site
				{
					OFFSET 0.000000 0.000000 0.000000
				}
			}
		}
	}
}
MOTION
Frames: 4
Frame Time: 0.016667
0.163752 88.576118 3.548858 -0.212587 -0.682836 -11.792940 1.402932 0.271625 7.236308 -1.006880 0.532750 2.664850 0.024648 0.136884 6.059375 -1.571842 0.513952 4.899520 0.709077 0.325170 6.086468 0.803159 0.513208 -2.362026 -0.229589 -1.382909 -20.290247 0.000000 0.000000 0.000000 92.198776 -0.275255 9.997945 66.105576 -21.263487 1.460967 -0.147758 19.540319 42.127071 4.376107 13.610102 -8.551183 18.431719 30.512373 63.463074 -7.031938 -9.401749 -16.315641 -5.117707 -6.168398 -11.154536 0.000000 0.000000 0.000000 0.918500 -9.087642 5.534204 3.962777 0.485957 0.916474 3.729699 0.052160 0.935365 0.000000 0.000000 0.000000 1.424327 -3.656308 2.030934 2.720282 0.509959 0.316987 3.434574 0.005070 0.282723 0.000000 0.000000 0.000000 3.988281 3.844945 -1.198219 4.035664 -1.012398 -0.574174 4.020411 -0.016774 -0.365971 0.000000 0.000000 0.000000 4.662229 12.128294 -5.332115 5.241739 -1.934305 -1.563631 5.037663 0.040171 -1.276904 0.000000 0.000000 0.000000 0.000000 0.000000 0.000000 0.000000 0.000000 0.000000 -89.977798 0.487552 3.931422 -69.041344 9.732059 -5.538162 -0.174198 -16.461636 77.444275 -9.814112 -9.038003 -8.190260 -18.544809 -30.478058 63.169048 7.306104 9.610250 -16.901981 5.300667 6.552227 -11.757123 0.000000 0.000000 0.000000 -8.376262 -7.378932 9.489673 -5.220904 0.493191 -0.690849 -4.962594 0.014847 -0.670641 0.000000 0.000000 0.000000 -8.822440 -1.994784 4.616261 -5.353868 0.493577 -0.329431 -5.632106 0.000032 -0.261833 0.000000 0.000000 0.000000 -14.380420 6.673172 -1.105955 -8.632025 -0.986794 0.616466 -8.645087 0.015881 0.475500 0.000000 0.000000 0.000000 -19.543888 15.926342 -7.791345 -11.726554 -1.795967 2.205854 -11.198951 0.242481 1.935864 0.000000 0.000000 0.000000 0.000000 0.000000 0.000000 0.000000 0.000000 0.000000 -0.938067 -10.788921 15.766980 -0.082593 -0.722133 5.441662 -2.713219 -7.767730 16.918564 -0.940753 0.915651 -18.052494 0.000000 0.000000 0.000000 0.000000 0.000000 0.000000 0.000000 0.000000 0.000000 -1.275993 -6.856546 10.343052 0.069229 0.329098 11.946802 3.663730 -2.551315 15.156100 0.192223 -0.389821 -20.601669 0.000000 0.000000 0.000000 0.000000 0.000000 0.000000 0.000000 0.000000 0.000000 
0.165565 88.570709 3.554518 -0.211069 -0.731516 -11.801469 1.398612 0.265435 7.259717 -0.996227 0.526611 2.660887 0.021367 0.109640 6.069763 -1.561467 0.494732 4.885919 0.734036 0.328900 6.086281 0.810015 0.522353 -2.357069 -0.238846 -1.385664 -20.265396 0.000000 0.000000 0.000000 92.235947 -0.278686 10.015222 65.986282 -21.480864 1.635508 -0.135732 19.445576 41.537701 4.515690 13.594110 -8.624227 18.467274 30.501509 63.428917 -7.069863 -9.468391 -16.417540 -5.148420 -6.216462 -11.228617 0.000000 0.000000 0.000000 1.325395 -9.152721 5.282960 4.109126 0.488045 0.907679 3.881971 0.054602 0.928370 0.000000 0.000000 0.000000 1.802521 -3.719705 1.855868 2.865111 0.510283 0.314417 3.573428 0.005450 0.280965 0.000000 0.000000 0.000000 4.334692 3.777858 -1.264561 4.179613 -1.012989 -0.572353 4.156730 -0.017176 -0.364637 0.000000 0.000000 0.000000 4.961033 12.060742 -5.303681 5.359112 -1.935237 -1.564682 5.151651 0.037676 -1.279150 0.000000 0.000000 0.000000 0.000000 0.000000 0.000000 0.000000 0.000000 0.000000 -90.004463 0.486860 3.979664 -69.065514 10.052128 -5.606995 -0.180521 -16.331411 77.041580 -9.741842 -8.819658 -8.331517 -18.510654 -30.488724 63.203133 7.267731 9.547901 -16.795860 5.269113 6.508647 -11.686971 0.000000 0.000000 0.000000 -8.110036 -7.419796 9.426792 -5.021217 0.493537 -0.692807 -4.760862 0.015504 -0.672064 0.000000 0.000000 0.000000 -8.553226 -2.041800 4.567210 -5.146593 0.493774 -0.329686 -5.421030 0.000138 -0.262056 0.000000 0.000000 0.000000 -14.029190 6.614311 -1.147053 -8.392636 -0.987404 0.615116 -8.394560 0.015284 0.474985 0.000000 0.000000 0.000000 -19.154758 15.877052 -7.823069 -11.475873 -1.797680 2.198105 -10.950885 0.239543 1.931454 0.000000 0.000000 0.000000 0.000000 0.000000 0.000000 0.000000 0.000000 0.000000 -0.937585 -10.789888 15.781265 -0.081896 -0.723547 5.414828 -2.718899 -7.746490 16.889647 -0.945278 0.920320 -18.032026 0.000000 0.000000 0.000000 0.000000 0.000000 0.000000 0.000000 0.000000 0.000000 -1.265001 -6.814732 10.341303 0.069751 0.328517 11.985096 3.660970 -2.520299 15.133359 0.188966 -0.388790 -20.602034 0.000000 0.000000 0.000000 0.000000 0.000000 0.000000 0.000000 0.000000 0.000000 
0.167006 88.565453 3.561184 -0.208446 -0.784046 -11.809498 1.392725 0.259978 7.281887 -0.987575 0.521222 2.657084 0.016098 0.084208 6.085011 -1.552391 0.476756 4.868589 0.762387 0.329442 6.076612 0.816365 0.528655 -2.356840 -0.248395 -1.387716 -20.231749 0.000000 0.000000 0.000000 92.280533 -0.282723 10.033759 65.873268 -21.702534 1.816358 -0.123690 19.364246 40.941639 4.675508 13.536287 -8.699806 18.509604 30.489000 63.390034 -7.111809 -9.547062 -16.535902 -5.182760 -6.272095 -11.314816 0.000000 0.000000 0.000000 1.768748 -9.224507 5.006027 4.282937 0.488562 0.905172 4.062615 0.055475 0.926921 0.000000 0.000000 0.000000 2.210251 -3.788553 1.663292 3.035246 0.510012 0.314482 3.737957 0.005317 0.281355 0.000000 0.000000 0.000000 4.700465 3.706543 -1.341922 4.346770 -1.012795 -0.574078 4.318119 -0.016898 -0.366005 0.000000 0.000000 0.000000 5.276226 11.989171 -5.280846 5.494416 -1.934134 -1.575513 5.283727 0.037056 -1.290218 0.000000 0.000000 0.000000 0.000000 0.000000 0.000000 0.000000 0.000000 0.000000 -90.036423 0.486602 4.031135 -69.101974 10.384435 -5.680198 -0.188252 -16.220253 76.623909 -9.686774 -8.607210 -8.462057 -18.499851 -30.492428 63.214550 7.252964 9.531938 -16.759388 5.256932 6.495533 -11.665763 0.000000 0.000000 0.000000 -8.012855 -7.429621 9.289534 -4.925619 0.492736 -0.698657 -4.662909 0.015022 -0.676799 0.000000 0.000000 0.000000 -8.444456 -2.059422 4.467686 -5.040987 0.493341 -0.331735 -5.310915 -0.000296 -0.263733 0.000000 0.000000 0.000000 -13.836501 6.581759 -1.209387 -8.254347 -0.986971 0.616136 -8.245831 0.015421 0.476402 0.000000 0.000000 0.000000 -18.905533 15.845219 -7.842836 -11.313040 -1.796975 2.196096 -10.793463 0.238587 1.932339 0.000000 0.000000 0.000000 0.000000 0.000000 0.000000 0.000000 0.000000 0.000000 -0.936821 -10.787854 15.794873 -0.081155 -0.724954 5.385625 -2.727542 -7.722292 16.861422 -0.949621 0.925101 -18.008543 0.000000 0.000000 0.000000 0.000000 0.000000 0.000000 0.000000 0.000000 0.000000 -1.253469 -6.769781 10.343366 0.070374 0.328155 12.017810 3.654362 -2.485296 15.112964 0.186447 -0.387778 -20.599558 0.000000 0.000000 0.000000 0.000000 0.000000 0.000000 0.000000 0.000000 0.000000 
0.168091 88.560402 3.569148 -0.205453 -0.838275 -11.817019 1.386567 0.255524 7.304020 -0.981298 0.516989 2.651452 0.008873 0.061448 6.106875 -1.544819 0.460341 4.848580 0.793091 0.326980 6.055085 0.822497 0.531707 -2.363051 -0.257985 -1.389209 -20.190123 0.000000 0.000000 0.000000 92.327705 -0.286385 10.055974 65.778534 -21.925142 1.994556 -0.112098 19.290394 40.359089 4.847431 13.446281 -8.766078 18.557663 30.474838 63.346970 -7.157617 -9.635769 -16.668701 -5.220329 -6.333744 -11.411036 0.000000 0.000000 0.000000 2.240655 -9.300571 4.708936 4.483180 0.486992 0.909607 4.270617 0.054285 0.931482 0.000000 0.000000 0.000000 2.638887 -3.861084 1.457270 3.229248 0.508920 0.317422 3.926978 0.004513 0.284029 0.000000 0.000000 0.000000 5.076800 3.632022 -1.429198 4.534242 -1.011446 -0.579565 4.501458 -0.015742 -0.370190 0.000000 0.000000 0.000000 5.599548 11.913305 -5.264848 5.643161 -1.929801 -1.596488 5.430099 0.039033 -1.310487 0.000000 0.000000 0.000000 0.000000 0.000000 0.000000 0.000000 0.000000 0.000000 -90.068275 0.486683 4.086064 -69.156494 10.723283 -5.761160 -0.198471 -16.129183 76.194557 -9.666976 -8.420912 -8.592986 -18.509521 -30.489700 63.205467 7.259847 9.556623 -16.785297 5.262355 6.509280 -11.688050 0.000000 0.000000 0.000000 -8.063070 -7.411193 9.084212 -4.919533 0.490813 -0.707692 -4.653409 0.013479 -0.684144 0.000000 0.000000 0.000000 -8.474077 -2.051290 4.320077 -5.021822 0.492297 -0.335241 -5.286760 -0.001231 -0.266606 0.000000 0.000000 0.000000 -13.779606 6.570786 -1.296662 -8.199307 -0.985511 0.619016 -8.181479 0.016223 0.479352 0.000000 0.000000 0.000000 -18.775986 15.825087 -7.859191 -11.221554 -1.793868 2.198886 -10.709733 0.239505 1.937744 0.000000 0.000000 0.000000 0.000000 0.000000 0.000000 0.000000 0.000000 0.000000 -0.934264 -10.784909 15.806728 -0.080354 -0.726218 5.356112 -2.739910 -7.695543 16.835911 -0.953561 0.929759 -17.983498 0.000000 0.000000 0.000000 0.000000 0.000000 0.000000 0.000000 0.000000 0.000000 -1.241023 -6.722286 10.347840 0.070982 0.327899 12.047315 3.644032 -2.444460 15.094622 0.184596 -0.386628 -20.595135 0.000000 0.000000 0.000000 0.000000 0.000000 0.000000 0.000000 0.000000 0.000000 
